HIERARCHY
ROOT Hips
{
	OFFSET 0.000000 0.000000 0.000000
	CHANNELS 6 Xposition Yposition Zposition Zrotation Yrotation Xrotation 
	JOINT LHipJoint
	{
		OFFSET 0.000000 0.000000 0.000000
		CHANNELS 3 Zrotation Yrotation Xrotation
		JOINT LeftUpLeg
		{
			OFFSET 1.363060 -1.794630 0.839290
			CHANNELS 3 Zrotation Yrotation Xrotation
			JOINT LeftLeg
			{
				OFFSET 2.448110 -6.726130 0.000000
				CHANNELS 3 Zrotation Yrotation Xrotation
				JOINT LeftFoot
				{
					OFFSET 2.562200 -7.039590 0.000000
					CHANNELS 3 Zrotation Yrotation Xrotation
					JOINT LeftToeBase
					{
						OFFSET 0.157640 -0.433110 2.322550
						CHANNELS 3 Zrotation Yrotation Xrotation
						End Site
						{
							OFFSET 0.000000 0.000000 0.000000
						}
					}
				}
			}
		}
	}
	JOINT RHipJoint
	{
		OFFSET 0.000000 0.000000 0.000000
		CHANNELS 3 Zrotation Yrotation Xrotation
		JOINT RightUpLeg
		{
			OFFSET -1.305520 -1.794630 0.839290
			CHANNELS 3 Zrotation Yrotation Xrotation
			JOINT RightLeg
			{
				OFFSET -2.542530 -6.985550 0.000000
				CHANNELS 3 Zrotation Yrotation Xrotation
				JOINT RightFoot
				{
					OFFSET -2.568260 -7.056230 0.000000
					CHANNELS 3 Zrotation Yrotation Xrotation
					JOINT RightToeBase
					{
						OFFSET -0.164730 -0.452590 2.363150
						CHANNELS 3 Zrotation Yrotation Xrotation
						End Site
						{
							OFFSET 0.000000 0.000000 0.000000
						}
					}
				}
			}
		}
	}
	JOINT LowerBack
	{
		OFFSET 0.000000 0.000000 0.000000
		CHANNELS 3 Zrotation Yrotation Xrotation
		JOINT Spine
		{
			OFFSET 0.028270 2.035590 -0.193380
			CHANNELS 3 Zrotation Yrotation Xrotation
			JOINT Spine1
			{
				OFFSET 0.056720 2.048850 -0.042750
				CHANNELS 3 Zrotation Yrotation Xrotation
				JOINT Neck
				{
					OFFSET 0.000000 0.000000 0.000000
					CHANNELS 3 Zrotation Yrotation Xrotation
					JOINT Neck1
					{
						OFFSET -0.054170 1.746240 0.172020
						CHANNELS 3 Zrotation Yrotation Xrotation
						JOINT Head
						{
							OFFSET 0.104070 1.761360 -0.123970
							CHANNELS 3 Zrotation Yrotation Xrotation
							End Site
							{
								OFFSET 0.000000 0.000000 0.000000
							}
						}
					}
				}
				JOINT LeftShoulder
				{
					OFFSET 0.000000 0.000000 0.000000
					CHANNELS 3 Zrotation Yrotation Xrotation
					JOINT LeftArm
					{
						OFFSET 3.362410 1.200890 -0.311210
						CHANNELS 3 Zrotation Yrotation Xrotation
						JOINT LeftForeArm
						{
							OFFSET 4.983000 -0.000000 -0.000000
							CHANNELS 3 Zrotation Yrotation Xrotation
							JOINT LeftHand
							{
								OFFSET 3.483560 -0.000000 -0.000000
								CHANNELS 3 Zrotation Yrotation Xrotation
								JOINT LeftFingerBase
								{
									OFFSET 0.000000 0.000000 0.000000
									CHANNELS 3 Zrotation Yrotation Xrotation
									JOINT LeftHandIndex1
									{
										OFFSET 0.715260 -0.000000 -0.000000
										CHANNELS 3 Zrotation Yrotation Xrotation
										End Site
										{
											OFFSET 0.000000 0.000000 0.000000
										}
									}
								}
								JOINT LThumb
								{
									OFFSET 0.000000 0.000000 0.000000
									CHANNELS 3 Zrotation Yrotation Xrotation
									End Site
									{
										OFFSET 0.000000 0.000000 0.000000
									}
								}
							}
						}
					}
				}
				JOINT RightShoulder
				{
					OFFSET 0.000000 0.000000 0.000000
					CHANNELS 3 Zrotation Yrotation Xrotation
					JOINT RightArm
					{
						OFFSET -3.136600 1.374050 -0.404650
						CHANNELS 3 Zrotation Yrotation Xrotation
						JOINT RightForeArm
						{
							OFFSET -5.241900 -0.000000 -0.000000
							CHANNELS 3 Zrotation Yrotation Xrotation
							JOINT RightHand
							{
								OFFSET -3.444170 -0.000000 -0.000000
								CHANNELS 3 Zrotation Yrotation Xrotation
								JOINT RightFingerBase
								{
									OFFSET 0.000000 0.000000 0.000000
									CHANNELS 3 Zrotation Yrotation Xrotation
									JOINT RightHandIndex1
									{
										OFFSET -0.622530 -0.000000 -0.000000
										CHANNELS 3 Zrotation Yrotation Xrotation
										End Site
										{
											OFFSET 0.000000 0.000000 0.000000
										}
									}
								}
								JOINT RThumb
								{
									OFFSET 0.000000 0.000000 0.000000
									CHANNELS 3 Zrotation Yrotation Xrotation
									End Site
									{
										OFFSET 0.000000 0.000000 0.000000
									}
								}
							}
						}
					}
				}
			}
		}
	}
}
MOTION
Frames: 7
Frame Time: 0.008333
-9.568570 17.026271 -0.256662 -11.304590 80.213650 -3.223258 -11.498155 5.902681 0.775244 -6.220943 10.739322 5.571994 -0.916676 2.029106 24.354536 0.402741 -5.858774 18.690326 -2.615700 -0.000000 -81.388000 7.745728 -1.211793 5.293608 14.426768 10.699647 -25.031274 3.541647 0.561818 7.473427 0.261977 0.635585 2.645478 -0.545400 -0.000000 -16.759400 4.484880 -6.279229 -7.060817 0.861306 -6.898056 -3.843008 -5.506699 -6.953221 1.758366 9.385419 -20.733125 -9.483406 -3.184369 -0.232453 -0.381636 0.000000 0.000000 0.000000 -3.658499 2.472702 0.650935 -59.395988 -10.651923 12.231003 -2.517947 -46.666904 -0.012205 5.467476 -1.603342 -0.085766 -0.102442 0.188217 -0.000000 0.000000 0.000000 0.000000 0.000000 0.000000 0.000000 16.543088 -20.463139 -0.098862 57.275511 -7.781100 -3.138096 3.006924 39.353922 0.003305 0.205049 1.113238 0.001373 0.115087 -0.034461 -0.000000 0.000000 0.000000 0.000000 0.000000 0.000000 0.000000 
-9.389030 17.033116 -0.254928 -14.710951 79.974215 -6.783904 -11.623251 5.884953 0.717156 -5.304343 11.500011 4.582333 -0.709357 2.119094 26.725400 0.556471 -6.029003 20.622218 -2.957600 0.000000 -80.393000 7.702053 -1.342500 5.255815 15.283132 10.467067 -24.498395 3.625402 0.464214 8.197098 0.308269 1.013232 2.357598 -0.453900 0.000000 -14.336201 5.110457 -6.161764 -6.991081 0.979697 -6.847051 -3.845567 -5.519950 -6.902832 1.725024 9.364547 -20.579199 -9.466171 -3.213873 -0.235652 -0.377563 0.000000 0.000000 0.000000 -3.741422 2.663932 0.597711 -60.511002 -9.889961 12.238807 -2.529824 -45.971330 -0.011733 5.439301 -1.596432 -0.084723 -0.100225 0.182222 -0.000000 0.000000 0.000000 0.000000 0.000000 0.000000 0.000000 16.605920 -20.255464 -0.109186 57.130318 -7.347738 -3.059229 3.012509 39.117775 0.003224 -0.053567 1.128873 -0.001223 0.116870 -0.035131 -0.000000 0.000000 0.000000 0.000000 0.000000 0.000000 0.000000 
-9.212987 17.040019 -0.252008 -17.621135 79.717530 -9.835697 -11.753372 5.836485 0.643688 -4.459482 12.291423 3.482901 -0.512521 2.191109 29.206898 0.725282 -6.005008 22.497220 -3.217200 0.000000 -78.320300 7.645394 -1.468447 5.219929 16.066954 10.246283 -23.964929 3.711135 0.376474 8.924509 0.357312 1.465563 1.869378 -0.348800 0.000000 -11.934100 5.650782 -6.042677 -6.909860 1.076969 -6.785025 -3.843636 -5.542533 -6.841196 1.693020 9.382698 -20.393645 -9.451461 -3.245876 -0.238972 -0.374374 0.000000 0.000000 0.000000 -3.755912 2.868119 0.545389 -61.651316 -9.112274 12.193667 -2.536664 -45.233337 -0.011337 5.436197 -1.581946 -0.083682 -0.098037 0.176002 -0.000000 0.000000 0.000000 0.000000 0.000000 0.000000 0.000000 16.717467 -20.009873 -0.117747 57.046954 -6.878151 -2.933890 3.017229 38.867494 0.003092 -0.304304 1.122437 -0.003818 0.118432 -0.035673 -0.000000 0.000000 0.000000 0.000000 0.000000 0.000000 0.000000 
-9.040717 17.046981 -0.247933 -20.083807 79.449604 -12.424028 -11.881337 5.760403 0.555158 -3.698845 13.089033 2.281682 -0.332495 2.250365 31.781711 0.903451 -5.695004 24.200928 -3.319400 -0.000001 -75.202200 7.580572 -1.584736 5.189640 16.773275 10.053579 -23.418319 3.796269 0.302688 9.611018 0.403699 1.941553 1.241017 -0.246500 0.000000 -9.692201 6.112175 -5.920210 -6.820182 1.153997 -6.710937 -3.837630 -5.575504 -6.767181 1.663948 9.439867 -20.182445 -9.441889 -3.280156 -0.242369 -0.372710 0.000000 0.000000 0.000000 -3.714643 3.089203 0.495827 -62.793844 -8.324408 12.105732 -2.538789 -44.466035 -0.011000 5.455271 -1.559510 -0.082544 -0.095870 0.169532 -0.000000 0.000000 0.000000 0.000000 0.000000 0.000000 0.000000 16.878148 -19.731249 -0.124241 57.023879 -6.363692 -2.752356 3.021603 38.603072 0.002926 -0.542278 1.098310 -0.006114 0.119755 -0.036104 -0.000000 0.000000 0.000000 0.000000 0.000000 0.000000 0.000000 
-8.872262 17.054032 -0.242815 -22.190594 79.181616 -14.637515 -12.000367 5.659298 0.453148 -3.026152 13.866434 0.987181 -0.171490 2.303282 34.430619 1.084785 -5.018859 25.618888 -3.191800 -0.000000 -71.191300 7.511361 -1.689487 5.168730 17.405398 9.898809 -22.847030 3.879123 0.246539 10.210141 0.442087 2.391653 0.531629 -0.159500 0.000000 -7.675900 6.507123 -5.794290 -6.726463 1.213140 -6.626218 -3.829177 -5.620162 -6.682183 1.636008 9.531244 -19.937694 -9.434559 -3.317586 -0.245962 -0.371716 0.000000 0.000000 0.000000 -3.633208 3.321159 0.451972 -63.915118 -7.519989 11.984245 -2.536515 -43.687823 -0.010698 5.491665 -1.529239 -0.081306 -0.093684 0.162798 0.000000 0.000000 0.000000 0.000000 0.000000 0.000000 0.000000 17.082845 -19.410924 -0.128219 57.064171 -5.818448 -2.531347 3.025981 38.333401 0.002740 -0.753995 1.062436 -0.007909 0.120736 -0.036481 -0.000000 0.000000 0.000000 0.000000 0.000000 0.000000 0.000000 
-8.707643 17.061332 -0.236648 -23.981021 78.928420 -16.514402 -12.103982 5.537822 0.342642 -2.457947 14.587204 -0.387648 -0.028673 2.356801 37.124779 1.264486 -3.914567 26.651371 -2.778700 -0.000000 -66.552000 7.443451 -1.781969 5.156029 17.960547 9.770055 -22.251038 3.956812 0.208826 10.695218 0.470403 2.786804 -0.198327 -0.092300 0.000000 -6.047701 6.836284 -5.666775 -6.632928 1.254845 -6.533132 -3.818903 -5.676337 -6.588472 1.610530 9.654401 -19.667851 -9.430640 -3.358201 -0.249751 -0.371657 0.000000 0.000000 0.000000 -3.526833 3.563620 0.415202 -64.991999 -6.702102 11.845987 -2.530639 -42.911858 -0.010399 5.538397 -1.491056 -0.079870 -0.091459 0.155775 0.000000 0.000000 0.000000 0.000000 0.000000 0.000000 0.000000 17.331055 -19.058383 -0.130375 57.163194 -5.236210 -2.262057 3.030320 38.059428 0.002561 -0.939547 1.025558 -0.009303 0.121381 -0.036864 -0.000000 0.000000 0.000000 0.000000 0.000000 0.000000 0.000000 
-8.546673 17.069040 -0.229559 -25.532722 78.704595 -18.131927 -12.188529 5.399655 0.229365 -1.998991 15.217682 -1.829824 0.100153 2.416298 39.833518 1.440030 -2.367076 27.224353 -2.066000 0.000000 -61.624300 7.380100 -1.863294 5.150483 18.443630 9.656676 -21.629486 4.027742 0.189980 11.043008 0.486883 3.101549 -0.898779 -0.046300 0.000000 -4.882000 7.107439 -5.539426 -6.544032 1.281103 -6.434595 -3.808321 -5.743933 -6.489008 1.585993 9.802471 -19.369165 -9.426889 -3.402690 -0.253841 -0.371619 0.000000 0.000000 0.000000 -3.412219 3.810429 0.387465 -66.004626 -5.866665 11.705389 -2.521898 -42.152150 -0.010078 5.587609 -1.444765 -0.077932 -0.089156 0.148460 0.000000 0.000000 0.000000 0.000000 0.000000 0.000000 0.000000 17.616236 -18.670430 -0.131040 57.320329 -4.629516 -1.957075 3.034413 37.788965 0.002411 -1.093684 0.997187 -0.010496 0.121642 -0.037337 -0.000000 0.000000 0.000000 0.000000 0.000000 0.000000 0.000000 
